# xmcd
#
# Track frame offsets:
#	150
#	14133
#	25446
#	40521
#	51253
#	68687
#	80206
#	96586
#	110483
#	123529
#	136145
#	152377
#	162887
#	175583
#	188584
#	204494
#	217142
#
# Disc length: 3092 seconds
#
# Revision: 0
# Processed by: cddbd v1.5.1PL0 Copyright (c) Steve Scherf et al.
# Submitted via: dBpowerAMP V4.0
#
DISCID=ed0c1211
DTITLE=Various Artist - Honky Tonk Show
DYEAR=1900
DGENRE=
TTITLE0=Red Jenkins - Stay under me
TTITLE1=Marie Hedman - You can't the Texas out of me
TTITLE2=Göran Danielsson - You're the perfect picture
TTITLE3=Red Jenkins - She's not hurting me tonight
TTITLE4=Kerstin Dahlberg - Rumour has it
TTITLE5=Göran Danielsson - Under this old hat
TTITLE6=Marie Hedman - Dotter av de tusen sjöars land
TTITLE7=Red Jenkins - The beginning of goodbye
TTITLE8=Kerstin Dahlberg - Ashes
TTITLE9=Göran Danielsson - Ömsom vin ömsom vatten
TTITLE10=Kerstin Dahlberg - The bed you made for me
TTITLE11=Göran Danielsson - She's gone gone gone
TTITLE12=Marie Hedman - Drömmar dör först
TTITLE13=Red Jenkins - One for the road
TTITLE14=Marie Hedman - Old flames (Can't hold the candle to you)
TTITLE15=Red Jenkins - Hank and Jack
TTITLE16=Joseph Lundberg - Take that smile from your face
EXTD=Honky Tonk Show
EXTT0=
EXTT1=
EXTT2=
EXTT3=
EXTT4=
EXTT5=
EXTT6=
EXTT7=
EXTT8=
EXTT9=
EXTT10=
EXTT11=
EXTT12=
EXTT13=
EXTT14=
EXTT15=
EXTT16=
PLAYORDER=
